# xmcd
#
# Track frame offsets: 
#        182
#        16635
#        30527
#        56577
#        76437
#        89415
#        121015
#        138795
#        166207
#        191470
#        213357
#        235967
#
# Disc length: 3391 seconds
#
# Revision: 10
# Processed by: cddbd v1.5.2PL0 Copyright (c) Steve Scherf et al.
# Submitted via: ExactAudioCopy v0.99pb4
#
DISCID=8c0d3d0c
DTITLE=Pantera - Far Beyond Driven
DYEAR=1994
DGENRE=Thrash Metal
TTITLE0=Strength Beyond Strength
TTITLE1=Becoming
TTITLE2=5 Minutes Alone
TTITLE3=I'm Broken
TTITLE4=Good Friends And A Bottle Of Pills
TTITLE5=Hard Lines, Sunken Cheeks
TTITLE6=Slaughtered
TTITLE7=25 Years
TTITLE8=Shedding Skin
TTITLE9=Use My Third Arm
TTITLE10=Throes Of Rejection
TTITLE11=Planet Caravan (Black Sabbath Cover)
EXTD=YEAR: 1994 ID3G:   9
EXTT0=
EXTT1=
EXTT2=
EXTT3=
EXTT4=
EXTT5=
EXTT6=
EXTT7=
EXTT8=
EXTT9=
EXTT10=
EXTT11=
PLAYORDER=
